<svg width="65" height="64" viewBox="0 0 65 64" fill="none" xmlns="http://www.w3.org/2000/svg">
<path d="M32.0214 26.6243C29.067 26.6243 26.6644 29.0269 26.6644 31.9812C26.6644 34.9356 29.067 37.3382 32.0214 37.3382C34.9758 37.3382 37.3784 34.9356 37.3784 31.9812C37.3784 29.0269 34.9758 26.6243 32.0214 26.6243ZM32.0214 34.6597C30.5456 34.6597 29.3429 33.4571 29.3429 31.9812C29.3429 30.5054 30.5456 29.3028 32.0214 29.3028C33.4973 29.3028 34.6999 30.5054 34.6999 31.9812C34.6999 33.4571 33.4973 34.6597 32.0214 34.6597ZM22.0922 23.9458L0.0401774 1.8937L1.93387 0L23.9565 22.0226L23.9859 7.8721L26.6644 7.87746L26.6323 22.6413C26.6323 24.8377 24.8457 26.6243 22.6467 26.6243H7.91496V23.9458H22.0922ZM37.4106 22.6387L37.3784 7.87746L40.0569 7.8721L40.0864 22.0226L62.109 0L64.0027 1.8937L41.9506 23.9458H56.1279V26.6243H41.3962C39.1971 26.6243 37.4106 24.8377 37.4106 22.6387ZM26.6644 41.356V56.0877H23.9859V41.9104L1.8937 64L0 62.1063L22.0628 40.0462L7.91228 40.0167L7.91764 37.3382L22.6815 37.3704C24.8779 37.3704 26.6644 39.1596 26.6644 41.356ZM62.1224 63.9759L40.0864 41.9399L40.0569 56.0904L37.3784 56.085L37.4106 41.3212C37.4106 39.1275 39.1971 37.3382 41.3962 37.3382H56.1279V40.0167H41.9506L64.0161 62.0822L62.1224 63.9759Z" fill="url(#paint0_radial_293_788)"/>
<defs>
<radialGradient id="paint0_radial_293_788" cx="0" cy="0" r="1" gradientUnits="userSpaceOnUse" gradientTransform="translate(2.38067 8.16769) scale(65.5473 106.129)">
<stop stop-color="#33E2C5"/>
<stop offset="1" stop-color="#0681BF"/>
</radialGradient>
</defs>
</svg>
