<svg width="54" height="64" viewBox="0 0 54 64" fill="none" xmlns="http://www.w3.org/2000/svg">
<path d="M50.6667 57.3333V62.6667C50.6667 63.4027 50.0693 64 49.3333 64C48.5973 64 48 63.4027 48 62.6667V57.3333C48 52.1867 43.8133 48 38.6667 48H14.6667C9.52 48 5.33333 52.1867 5.33333 57.3333V62.6667C5.33333 63.4027 4.736 64 4 64C3.264 64 2.66667 63.4027 2.66667 62.6667V57.3333C2.66667 50.7173 8.05067 45.3333 14.6667 45.3333H38.6667C45.2827 45.3333 50.6667 50.7173 50.6667 57.3333ZM53.3333 20V28C53.3333 30.2053 51.5387 32 49.3333 32H47.264C45.608 36.6453 41.208 40 36 40H17.3333C12.1253 40 7.728 36.6453 6.06933 32H4C1.79467 32 0 30.2053 0 28V20C0 17.7947 1.79467 16 4 16H5.46933C6.14133 10.016 11.1733 5.33333 17.3333 5.33333H25.3333V1.33333C25.3333 0.597333 25.9307 0 26.6667 0C27.4027 0 28 0.597333 28 1.33333V5.33333H36C42.16 5.33333 47.192 10.016 47.864 16H49.3333C51.5387 16 53.3333 17.7947 53.3333 20ZM5.46933 29.3333C5.41867 28.8907 5.33333 28.456 5.33333 28V18.6667H4C3.26667 18.6667 2.66667 19.2667 2.66667 20V28C2.66667 28.7333 3.26667 29.3333 4 29.3333H5.46933ZM45.3333 28V17.3333C45.3333 12.1867 41.1467 8 36 8H17.3333C12.1867 8 8 12.1867 8 17.3333V28C8 33.1467 12.1867 37.3333 17.3333 37.3333H36C41.1467 37.3333 45.3333 33.1467 45.3333 28ZM50.6667 20C50.6667 19.2667 50.0667 18.6667 49.3333 18.6667H48V28C48 28.456 47.9147 28.8907 47.864 29.3333H49.3333C50.0667 29.3333 50.6667 28.7333 50.6667 28V20ZM34.6667 13.3333C33.9307 13.3333 33.3333 13.9307 33.3333 14.6667V30.6667C33.3333 31.4027 33.9307 32 34.6667 32C35.4027 32 36 31.4027 36 30.6667V14.6667C36 13.9307 35.4027 13.3333 34.6667 13.3333ZM29.2987 30.4053C29.464 31.1227 29.0213 31.8373 28.3013 32.008C27.6 32.1733 26.8667 31.736 26.6987 31.0107L25.6853 26.6667H19.6453L18.632 31.0107C18.464 31.7307 17.7573 32.1813 17.0293 32.008C16.3093 31.84 15.864 31.1227 16.032 30.4053L19.416 15.9147C19.7787 14.368 21.0853 13.3307 22.6667 13.3307C24.248 13.3307 25.5547 14.368 25.9173 15.912L29.2987 30.4053ZM25.064 24L23.3173 16.52C23.2133 16.0667 22.864 16 22.6667 16C22.4693 16 22.12 16.0667 22.016 16.5227L20.2693 24H25.064Z" fill="url(#paint0_radial_293_790)"/>
<defs>
<radialGradient id="paint0_radial_293_790" cx="0" cy="0" r="1" gradientUnits="userSpaceOnUse" gradientTransform="translate(1.9834 8.16769) scale(54.609 106.129)">
<stop stop-color="#33E2C5"/>
<stop offset="1" stop-color="#0681BF"/>
</radialGradient>
</defs>
</svg>
