<svg width="1920" height="471" viewBox="0 0 1920 471" fill="none" xmlns="http://www.w3.org/2000/svg">
<g opacity="0.3" style="mix-blend-mode:screen">
<path d="M-4.72104 134.075L-5.98581 132.682C87.3792 106.59 168.436 92.9387 242.075 91.0074C307.956 89.2959 366.356 97.0431 420.651 114.714C521.674 147.6 590.285 208.502 663.113 273.001C758.279 357.387 856.899 444.739 1034.15 464.896C1191.07 482.766 1226.97 427.404 1272.4 357.336C1306.17 305.232 1344.46 246.167 1442.27 206.453C1555.2 160.587 1727.17 149.364 1968 172.135L1967.49 173.686C1727.49 150.984 1556.24 162.123 1443.96 207.729C1346.94 247.11 1308.73 305.972 1275.06 357.857C1252.94 391.939 1232.07 424.141 1197.28 444.882C1158.63 467.894 1106.61 474.749 1033.56 466.441C855.12 446.13 756.266 358.455 660.682 273.855C588.022 209.55 519.491 148.73 419.312 116.122C305.82 79.1276 170.949 84.8379 -4.72104 134.075Z" fill="url(#paint0_radial_138_2616)"/>
<path d="M-5.37851 135.131L-7.88645 132.328L-6.60739 131.977C86.8454 105.817 168.307 92.0654 242.003 90.2336C308.178 88.5082 366.86 96.2879 421.371 114.043C522.601 146.983 591.405 207.987 664.282 272.556C759.492 356.908 857.799 444.035 1034.44 464.132C1190.17 481.848 1225.86 426.792 1271.04 357.064C1304.91 304.845 1343.28 245.682 1441.39 205.803C1554.6 159.865 1726.96 148.513 1968.22 171.347L1969.62 171.48L1968.61 174.583L1967.21 174.45C1727.61 151.828 1556.72 162.902 1444.78 208.355C1348.02 247.635 1309.98 306.33 1276.36 358.105C1254.21 392.28 1233.25 424.551 1198.28 445.399C1159.32 468.652 1106.81 475.571 1033.25 467.192C854.189 446.822 755.182 359.087 659.443 274.247C586.936 210.002 518.45 149.327 418.438 116.734C305.479 79.9721 171.215 85.713 -4.15195 134.785L-5.37851 135.131ZM1050.35 467.318C1044.99 466.852 1039.5 466.309 1033.96 465.696C1018.38 463.928 1003.03 461.595 988.017 458.71C1003.03 461.591 1018.37 463.93 1033.94 465.713C1039.47 466.297 1044.99 466.852 1050.35 467.318ZM444.19 124.061C531.908 158.221 595.174 214.315 661.882 273.422C673.36 283.575 684.846 293.758 696.503 303.88C684.876 293.77 673.36 283.576 661.913 273.434C589.068 209.057 520.51 148.149 419.909 115.403C414.478 113.622 408.999 111.952 403.318 110.331C408.876 111.904 414.355 113.574 419.909 115.403C428.23 118.112 436.323 120.998 444.19 124.061ZM1304.58 312.507C1293.12 327.672 1283.35 342.822 1273.75 357.579C1271.75 360.659 1269.75 363.738 1267.79 366.754C1269.78 363.721 1271.82 360.607 1273.73 357.596C1283.22 342.925 1293.08 327.706 1304.55 312.524L1304.58 312.507ZM1966.38 172.789C1726.67 150.224 1555.49 161.445 1443.12 207.091C1555.49 161.445 1726.58 150.292 1966.38 172.789Z" fill="url(#paint1_radial_138_2616)"/>
<path d="M-20.1921 27.6804L-22.1104 25.0299L-20.8136 24.7376C117.234 -6.84513 229.67 -8.14877 332.973 20.6083C424.944 46.1357 496.979 91.9095 573.461 140.341C701.444 221.406 833.764 305.214 1076.85 309.727C1252.28 312.942 1297.56 268.435 1345.47 221.298C1415.46 152.458 1494.76 74.4141 1977.29 113.399L1978.68 113.503L1977.88 116.329L1976.49 116.225C1497.38 77.4915 1418.99 154.605 1349.81 222.629C1301.14 270.548 1255.11 315.819 1076.51 312.524C966.831 310.479 869.477 291.832 778.439 255.685C698.198 223.691 632.844 182.294 569.617 142.265C420.717 47.9618 280.136 -41.0442 -18.8204 27.3657L-20.1921 27.6804ZM259.885 7.16699C235.339 3.78992 210.165 1.94052 184.829 1.65298C210.146 1.94751 235.303 3.78284 259.845 7.12583L259.885 7.16699Z" fill="url(#paint2_radial_138_2616)"/>
<path d="M-22.1102 246.134C-113.032 210.727 -165.925 165.9 -200.912 130.207L-198.402 129.435C-144.994 183.928 -49.4747 259.99 160.464 290.535C396.065 324.797 730.236 294.896 1153.75 201.662C1297.97 169.91 1398.34 167.356 1469.82 193.571C1532.87 216.812 1563.5 258.654 1595.95 302.977C1648.11 374.322 1702.13 448.084 1902.1 438.92L1902.31 440.492C1700.27 449.752 1645.9 375.44 1593.28 303.584C1529.49 216.317 1469.09 133.87 1154.85 203.042C730.692 296.489 395.901 326.405 159.79 292.073C94.5944 282.912 32.9914 267.354 -22.1102 246.134Z" fill="url(#paint3_radial_138_2616)"/>
</g>
<defs>
<radialGradient id="paint0_radial_138_2616" cx="0" cy="0" r="1" gradientUnits="userSpaceOnUse" gradientTransform="translate(1897.63 410.554) rotate(-180) scale(2231.73 780.402)">
<stop stop-color="#33E2C5"/>
<stop offset="1" stop-color="#0681BF"/>
</radialGradient>
<radialGradient id="paint1_radial_138_2616" cx="0" cy="0" r="1" gradientUnits="userSpaceOnUse" gradientTransform="translate(1897.63 410.554) rotate(-180) scale(2231.73 780.402)">
<stop stop-color="#33E2C5"/>
<stop offset="1" stop-color="#0681BF"/>
</radialGradient>
<radialGradient id="paint2_radial_138_2616" cx="0" cy="0" r="1" gradientUnits="userSpaceOnUse" gradientTransform="translate(1897.63 410.554) rotate(-180) scale(2231.73 780.402)">
<stop stop-color="#33E2C5"/>
<stop offset="1" stop-color="#0681BF"/>
</radialGradient>
<radialGradient id="paint3_radial_138_2616" cx="0" cy="0" r="1" gradientUnits="userSpaceOnUse" gradientTransform="translate(1897.63 410.554) rotate(-180) scale(2231.73 780.402)">
<stop stop-color="#33E2C5"/>
<stop offset="1" stop-color="#0681BF"/>
</radialGradient>
</defs>
</svg>
