<svg width="2180" height="471" viewBox="0 0 2180 471" fill="none" xmlns="http://www.w3.org/2000/svg">
<g opacity="0.3" style="mix-blend-mode:screen">
<path d="M196.19 134.076L194.925 132.683C288.29 106.591 369.347 92.9392 442.986 91.0079C508.867 89.2964 567.267 97.0436 621.562 114.715C722.586 147.6 791.196 208.502 864.024 273.001C959.19 357.387 1057.81 444.739 1235.06 464.896C1391.98 482.766 1427.88 427.404 1473.31 357.337C1507.08 305.233 1545.37 246.168 1643.18 206.454C1756.11 160.588 1928.08 149.364 2168.91 172.135L2168.4 173.687C1928.41 150.984 1757.15 162.123 1644.87 207.73C1547.85 247.111 1509.64 305.973 1475.97 357.857C1453.85 391.939 1432.98 424.142 1398.2 444.882C1359.54 467.895 1307.52 474.75 1234.47 466.441C1056.03 446.13 957.178 358.456 861.594 273.855C788.933 209.55 720.402 148.73 620.223 116.123C506.731 79.1281 371.86 84.8383 196.19 134.076Z" fill="url(#paint0_radial_362_487)"/>
<path d="M195.533 135.131L193.025 132.329L194.304 131.978C287.757 105.817 369.218 92.0659 442.914 90.2341C509.09 88.5087 567.772 96.2884 622.282 114.044C723.512 146.984 792.316 207.987 865.193 272.556C960.403 356.908 1058.71 444.035 1235.35 464.133C1391.08 481.849 1426.77 426.792 1471.95 357.064C1505.82 304.845 1544.19 245.683 1642.31 205.804C1755.51 159.866 1927.87 148.513 2169.13 171.348L2170.53 171.481L2169.52 174.584L2168.12 174.451C1928.53 151.828 1757.63 162.902 1645.69 208.356C1548.94 247.635 1510.89 306.331 1477.27 358.105C1455.12 392.28 1434.16 424.551 1399.19 445.4C1360.23 468.653 1307.72 475.572 1234.16 467.193C1055.1 446.822 956.093 359.088 860.354 274.247C787.848 210.002 719.361 149.328 619.349 116.734C506.39 79.9726 372.126 85.7135 196.759 134.786L195.533 135.131ZM1251.26 467.319C1245.9 466.853 1240.41 466.31 1234.87 465.696C1219.29 463.929 1203.94 461.595 1188.93 458.71C1203.94 461.591 1219.28 463.931 1234.85 465.713C1240.38 466.298 1245.9 466.853 1251.26 467.319ZM645.101 124.062C732.819 158.221 796.085 214.316 862.793 273.422C874.271 283.576 885.757 293.759 897.414 303.88C885.787 293.771 874.271 283.576 862.824 273.434C789.979 209.057 721.421 148.15 620.82 115.403C615.389 113.623 609.91 111.952 604.229 110.331C609.787 111.904 615.266 113.575 620.82 115.403C629.141 118.112 637.234 120.998 645.101 124.062ZM1505.49 312.508C1494.03 327.672 1484.26 342.823 1474.66 357.58C1472.67 360.659 1470.67 363.739 1468.7 366.755C1470.69 363.722 1472.73 360.608 1474.64 357.597C1484.13 342.926 1493.99 327.707 1505.47 312.525L1505.49 312.508ZM2167.29 172.79C1927.58 150.224 1756.4 161.446 1644.03 207.092C1756.4 161.446 1927.49 150.293 2167.29 172.79Z" fill="url(#paint1_radial_362_487)"/>
<path d="M180.719 27.6809L178.801 25.0304L180.098 24.7381C318.146 -6.84465 430.581 -8.14829 533.884 20.6087C625.856 46.1362 697.89 91.91 774.372 140.342C902.355 221.406 1034.68 305.214 1277.76 309.727C1453.19 312.943 1498.47 268.436 1546.38 221.298C1616.37 152.458 1695.67 74.4146 2178.2 113.399L2179.59 113.503L2178.79 116.33L2177.4 116.226C1698.29 77.492 1619.9 154.605 1550.73 222.63C1502.05 270.548 1456.02 315.819 1277.42 312.525C1167.74 310.479 1070.39 291.832 979.35 255.685C899.109 223.692 833.755 182.294 770.528 142.265C621.628 47.9623 481.047 -41.0437 182.091 27.3662L180.719 27.6809ZM460.796 7.16748C436.25 3.79041 411.076 1.94101 385.74 1.65347C411.057 1.948 436.214 3.78333 460.756 7.12631L460.796 7.16748Z" fill="url(#paint2_radial_362_487)"/>
<path d="M178.801 246.134C87.8789 210.727 34.9866 165.901 -0.000458522 130.207L2.50931 129.436C55.9175 183.929 151.436 259.99 361.376 290.535C596.976 324.797 931.147 294.897 1354.66 201.663C1498.88 169.911 1599.26 167.357 1670.73 193.571C1733.78 216.812 1764.41 258.654 1796.86 302.977C1849.02 374.322 1903.04 448.084 2103.02 438.921L2103.22 440.493C1901.18 449.753 1846.81 375.44 1794.19 303.584C1730.4 216.318 1670 133.87 1355.76 203.042C931.604 296.489 596.812 326.405 360.701 292.073C295.506 282.912 233.902 267.355 178.801 246.134Z" fill="url(#paint3_radial_362_487)"/>
</g>
<defs>
<radialGradient id="paint0_radial_362_487" cx="0" cy="0" r="1" gradientUnits="userSpaceOnUse" gradientTransform="translate(2098.54 410.554) rotate(-180) scale(2231.73 780.402)">
<stop stop-color="#33E2C5"/>
<stop offset="1" stop-color="#0681BF"/>
</radialGradient>
<radialGradient id="paint1_radial_362_487" cx="0" cy="0" r="1" gradientUnits="userSpaceOnUse" gradientTransform="translate(2098.54 410.554) rotate(-180) scale(2231.73 780.402)">
<stop stop-color="#33E2C5"/>
<stop offset="1" stop-color="#0681BF"/>
</radialGradient>
<radialGradient id="paint2_radial_362_487" cx="0" cy="0" r="1" gradientUnits="userSpaceOnUse" gradientTransform="translate(2098.54 410.554) rotate(-180) scale(2231.73 780.402)">
<stop stop-color="#33E2C5"/>
<stop offset="1" stop-color="#0681BF"/>
</radialGradient>
<radialGradient id="paint3_radial_362_487" cx="0" cy="0" r="1" gradientUnits="userSpaceOnUse" gradientTransform="translate(2098.54 410.554) rotate(-180) scale(2231.73 780.402)">
<stop stop-color="#33E2C5"/>
<stop offset="1" stop-color="#0681BF"/>
</radialGradient>
</defs>
</svg>
