<svg width="223" height="19" viewBox="0 0 223 19" fill="none" xmlns="http://www.w3.org/2000/svg">
<g clip-path="url(#clip0_362_436)">
<path d="M28.4489 18.5603H8.37647C3.7369 18.5603 0 14.7241 0 10.0523V8.50315C0 3.8313 3.7369 0 8.37647 0H28.4489V4.54967H8.37647C6.24596 4.54967 4.51825 6.34315 4.51825 8.50315V10.0523C4.51825 12.266 6.25081 14.0058 8.37647 14.0058H28.4489V18.5554V18.5603Z" fill="white"/>
<path d="M101.765 0.141602H97.2471V18.5602H101.765V0.141602Z" fill="white"/>
<path d="M66.8955 18.5602H92.8014V14.0789H71.4089V0.141602H66.8955V18.5602Z" fill="white"/>
<path d="M106.545 0.141602V18.5602H111.01V5.66376C117.707 10.0033 123.123 14.1327 129.753 18.5602H133.819V0.141602H129.355V13.038C122.725 8.6643 117.261 4.48114 110.597 0.141602H106.55H106.545Z" fill="white"/>
<path fill-rule="evenodd" clip-rule="evenodd" d="M142.196 9.35823C142.196 6.77797 144.273 4.68639 146.836 4.68639H158.153C160.696 4.68639 162.793 6.77797 162.793 9.35823C162.793 11.9385 160.701 14.0301 158.153 14.0301H146.836C144.273 14.0301 142.196 11.9238 142.196 9.35823ZM158.153 0.141602H146.836C141.798 0.141602 137.683 4.29055 137.683 9.35823C137.683 14.4259 141.803 18.5602 146.836 18.5602H158.153C163.191 18.5602 167.306 14.4113 167.306 9.35823C167.306 4.30521 163.191 0.141602 158.153 0.141602Z" fill="url(#paint0_radial_362_436)"/>
<path d="M182.905 18.5602H180.599L167.156 0.141602H172.572L182.905 14.1865L193.251 0.141602H198.653L185.224 18.5602H182.905Z" fill="white"/>
<path d="M47.473 0.141602H45.1532L31.7246 18.5602H37.1407C43.0081 10.5946 41.3969 12.7742 47.473 4.5349C53.4957 12.7057 52.0397 10.7363 57.8198 18.5602H63.2213L49.7927 0.141602H47.473Z" fill="white"/>
<path d="M206.976 0.141602H204.656L191.228 18.5602H196.644C202.511 10.5946 200.9 12.7742 206.976 4.5349C212.999 12.7057 211.543 10.7363 217.323 18.5602H222.724L209.296 0.141602H206.976Z" fill="white"/>
</g>
<defs>
<radialGradient id="paint0_radial_362_436" cx="0" cy="0" r="1" gradientUnits="userSpaceOnUse" gradientTransform="translate(138.784 2.49219) scale(30.3319 30.5429)">
<stop stop-color="#33E2C5"/>
<stop offset="1" stop-color="#0681BF"/>
</radialGradient>
<clipPath id="clip0_362_436">
<rect width="222.724" height="18.5603" fill="white"/>
</clipPath>
</defs>
</svg>
